curl_17s
version=1
nRows=252
nColumns=3
inDegrees=yes
endheader
time	r_shoulder_elev	r_elbow_flex
8.7900	20.000000	128.000000
8.8000	20.000000	128.000000
8.8100	20.000000	128.000000
8.8200	20.000000	128.000000
8.8300	20.000000	128.000000
8.8400	20.000000	128.000000
8.8500	20.000000	128.000000
8.8600	20.000000	128.000000
8.8700	20.000000	128.000000
8.8800	20.000000	128.000000
8.8900	20.000000	128.000000
8.9000	20.000000	128.000000
8.9100	20.000000	128.000000
8.9200	20.000000	128.000000
8.9300	20.000000	128.000000
8.9400	20.000000	128.000000
8.9500	20.000000	128.000000
8.9600	20.000000	128.000000
8.9700	20.000000	128.000000
8.9800	20.000000	128.000000
8.9900	20.000000	128.000000
9.0000	20.000000	128.000000
9.0100	20.000000	128.000000
9.0200	20.000000	128.000000
9.0300	20.000000	128.000000
9.0400	20.000000	128.000000
9.0500	20.000000	128.000000
9.0600	20.000000	128.000000
9.0700	20.000000	128.000000
9.0800	20.000000	128.000000
9.0900	20.000000	128.000000
9.1000	20.000000	128.000000
9.1100	20.000000	128.000000
9.1200	20.000000	128.000000
9.1300	20.000000	128.000000
9.1400	20.000000	128.000000
9.1500	20.000000	128.000000
9.1600	20.000000	128.000000
9.1700	20.000000	128.000000
9.1800	20.000000	128.000000
9.1900	20.000000	128.000000
9.2000	20.000000	128.000000
9.2100	20.000000	128.000000
9.2200	20.000000	128.000000
9.2300	20.000000	127.866818
9.2400	20.000000	126.755531
9.2500	20.000000	125.618766
9.2600	20.000000	124.457221
9.2700	20.000000	123.271696
9.2800	20.000000	122.063093
9.2900	20.000000	120.832401
9.3000	20.000000	119.580685
9.3100	20.000000	118.309070
9.3200	20.000000	117.018722
9.3300	20.000000	115.710830
9.3400	20.000000	114.386581
9.3500	20.000000	113.047144
9.3600	20.000000	111.693641
9.3700	20.000000	110.327130
9.3800	20.000000	108.948581
9.3900	20.000000	107.558862
9.4000	20.000000	106.158721
9.4100	20.000000	104.748772
9.4200	20.000000	103.329488
9.4300	20.000000	101.901191
9.4400	20.000000	100.464055
9.4500	20.000000	99.018103
9.4600	20.000000	97.563213
9.4700	20.000000	96.099129
9.4800	20.000000	94.625466
9.4900	20.000000	93.141731
9.5000	20.000000	91.647338
9.5100	20.000000	90.141620
9.5200	20.000000	88.623857
9.5300	20.000000	87.093292
9.5400	20.000000	85.549153
9.5500	20.000000	83.990675
9.5600	20.000000	82.417123
9.5700	20.000000	80.827811
9.5800	20.000000	79.222127
9.5900	20.000000	77.599550
9.6000	20.000000	75.959670
9.6100	20.000000	74.302211
9.6200	20.000000	72.627041
9.6300	20.000000	70.934193
9.6400	20.000000	69.223881
9.6500	20.000000	67.496503
9.6600	20.000000	65.752663
9.6700	20.000000	63.993171
9.6800	20.000000	62.219051
9.6900	20.000000	60.431548
9.7000	20.000000	58.632127
9.7100	20.000000	56.822472
9.7200	20.000000	55.004486
9.7300	20.000000	53.180285
9.7400	20.000000	51.352190
9.7500	20.000000	49.522719
9.7600	20.000000	47.694571
9.7700	20.000000	45.870619
9.7800	20.000000	44.053885
9.7900	20.000000	42.247526
9.8000	20.000000	40.454811
9.8100	20.000000	38.679096
9.8200	20.000000	36.923798
9.8300	20.000000	35.192370
9.8400	20.000000	33.488271
9.8500	20.000000	31.814934
9.8600	20.000000	30.175738
9.8700	20.000000	28.573976
9.8800	20.000000	27.012827
9.8900	20.000000	25.495323
9.9000	20.000000	24.024326
9.9100	20.000000	22.602497
9.9200	20.000000	21.232274
9.9300	20.000000	19.915854
9.9400	20.000000	18.655170
9.9500	20.000000	17.451877
9.9600	20.000000	16.307342
9.9700	20.000000	15.222634
9.9800	20.000000	14.198521
9.9900	20.000000	13.235466
10.0000	20.000000	12.333629
10.0100	20.000000	11.492873
10.0200	20.000000	10.712772
10.0300	20.000000	9.992620
10.0400	20.000000	9.331442
10.0500	20.000000	8.728015
10.0600	20.000000	8.180879
10.0700	20.000000	7.688357
10.0800	20.000000	7.248575
10.0900	20.000000	6.859483
10.1000	20.000000	6.518875
10.1100	20.000000	6.224411
10.1200	20.000000	5.973639
10.1300	20.000000	5.764015
10.1400	20.000000	5.592928
10.1500	20.000000	5.457716
10.1600	20.000000	5.355690
10.1700	20.000000	5.284155
10.1800	20.000000	5.240423
10.1900	20.000000	5.221841
10.2000	20.000000	5.225801
10.2100	20.000000	5.249763
10.2200	20.000000	5.291269
10.2300	20.000000	5.347961
10.2400	20.000000	5.417596
10.2500	20.000000	5.498061
10.2600	20.000000	5.587388
10.2700	20.000000	5.683769
10.2800	20.000000	5.785566
10.2900	20.000000	5.891326
10.3000	20.000000	5.999792
10.3100	20.000000	6.109912
10.3200	20.000000	6.220850
10.3300	20.000000	6.331994
10.3400	20.000000	6.442962
10.3500	20.000000	6.553609
10.3600	20.000000	6.664030
10.3700	20.000000	6.774562
10.3800	20.000000	6.885791
10.3900	20.000000	6.998545
10.4000	20.000000	7.113894
10.4100	20.000000	7.233150
10.4200	20.000000	7.357860
10.4300	20.000000	7.489800
10.4400	20.000000	7.630967
10.4500	20.000000	7.783571
10.4600	20.000000	7.950025
10.4700	20.000000	8.132929
10.4800	20.000000	8.335061
10.4900	20.000000	8.559360
10.5000	20.000000	8.808907
10.5100	20.000000	9.086908
10.5200	20.000000	9.396673
10.5300	20.000000	9.741593
10.5400	20.000000	10.125115
10.5500	20.000000	10.550715
10.5600	20.000000	11.021872
10.5700	20.000000	11.542035
10.5800	20.000000	12.114597
10.5900	20.000000	12.742855
10.6000	20.000000	13.429981
10.6100	20.000000	14.178990
10.6200	20.000000	14.992699
10.6300	20.000000	15.873697
10.6400	20.000000	16.824310
10.6500	20.000000	17.846569
10.6600	20.000000	18.942174
10.6700	20.000000	20.112468
10.6800	20.000000	21.358408
10.6900	20.000000	22.680544
10.7000	20.000000	24.078991
10.7100	20.000000	25.553417
10.7200	20.000000	27.103032
10.7300	20.000000	28.726572
10.7400	20.000000	30.422306
10.7500	20.000000	32.188031
10.7600	20.000000	34.021081
10.7700	20.000000	35.918345
10.7800	20.000000	37.876277
10.7900	20.000000	39.890929
10.8000	20.000000	41.957974
10.8100	20.000000	44.072745
10.8200	20.000000	46.230271
10.8300	20.000000	48.425321
10.8400	20.000000	50.652451
10.8500	20.000000	52.906054
10.8600	20.000000	55.180411
10.8700	20.000000	57.469742
10.8800	20.000000	59.768261
10.8900	20.000000	62.070228
10.9000	20.000000	64.370001
10.9100	20.000000	66.662081
10.9200	20.000000	68.941165
10.9300	20.000000	71.202184
10.9400	20.000000	73.440345
10.9500	20.000000	75.651167
10.9600	20.000000	77.830513
10.9700	20.000000	79.974617
10.9800	20.000000	82.080106
10.9900	20.000000	84.144023
11.0000	20.000000	86.163835
11.0100	20.000000	88.137448
11.0200	20.000000	90.063208
11.0300	20.000000	91.939900
11.0400	20.000000	93.766746
11.0500	20.000000	95.543394
11.0600	20.000000	97.269900
11.0700	20.000000	98.946715
11.0800	20.000000	100.574657
11.0900	20.000000	102.154884
11.1000	20.000000	103.688868
11.1100	20.000000	105.178357
11.1200	20.000000	106.625340
11.1300	20.000000	108.032011
11.1400	20.000000	109.400729
11.1500	20.000000	110.733973
11.1600	20.000000	112.034307
11.1700	20.000000	113.304334
11.1800	20.000000	114.546659
11.1900	20.000000	115.763843
11.2000	20.000000	116.958373
11.2100	20.000000	118.132617
11.2200	20.000000	119.288796
11.2300	20.000000	120.428951
11.2400	20.000000	121.554917
11.2500	20.000000	122.668297
11.2600	20.000000	123.770447
11.2700	20.000000	124.862457
11.2800	20.000000	125.945146
11.2900	20.000000	127.019051
11.3000	20.000000	128.000000
